<svg xmlns="http://www.w3.org/2000/svg" viewBox="0 0 100 100">
  <!-- Fundo circular verde -->
  <circle cx="50" cy="50" r="48" fill="#4a9c2d" />
  
  <!-- Rosto do goblin -->
  <ellipse cx="50" cy="50" rx="40" ry="42" fill="#8bc34a" />
  
  <!-- Olhos -->
  <circle cx="35" cy="40" r="8" fill="#fff" />
  <circle cx="65" cy="40" r="8" fill="#fff" />
  <circle cx="35" cy="40" r="4" fill="#ff9800" />
  <circle cx="65" cy="40" r="4" fill="#ff9800" />
  <circle cx="35" cy="40" r="2" fill="#000" />
  <circle cx="65" cy="40" r="2" fill="#000" />
  
  <!-- Sobrancelhas -->
  <path d="M25,32 Q35,25 45,32" fill="none" stroke="#2e7d32" stroke-width="3" />
  <path d="M55,32 Q65,25 75,32" fill="none" stroke="#2e7d32" stroke-width="3" />
  
  <!-- Nariz -->
  <path d="M50,45 Q55,55 50,60 Q45,55 50,45" fill="#5d4037" />
  
  <!-- Boca -->
  <path d="M30,65 Q50,80 70,65" fill="none" stroke="#5d4037" stroke-width="3" />
  
  <!-- Dentes -->
  <path d="M40,65 L43,72 L46,65" fill="#fff" />
  <path d="M54,65 L57,72 L60,65" fill="#fff" />
  
  <!-- Orelhas -->
  <path d="M10,40 Q15,20 30,30" fill="#8bc34a" />
  <path d="M90,40 Q85,20 70,30" fill="#8bc34a" />
</svg> 
